<svg xmlns="http://www.w3.org/2000/svg" width="3000" height="3000" fill="none" viewBox="0 0 3000 3000" id="happy-graduation"><path fill="#83C49F" d="M1729.5 2878.49C2258.23 2871.16 2686.21 2819.51 2685.43 2763.12C2684.65 2706.73 2255.4 2666.96 1726.67 2674.29C1197.93 2681.62 769.946 2733.27 770.728 2789.65C771.509 2846.04 1200.76 2885.81 1729.5 2878.49Z"></path><path fill="#474747" d="M1604.22 2890.07C1395.58 2890.07 1202.62 2882.66 1051.12 2868.62C962.568 2860.42 892.889 2850.37 844.015 2838.77C786.194 2825.04 760.285 2809.94 760.006 2789.81C759.727 2769.68 785.208 2753.87 842.627 2738.54C891.161 2725.59 960.535 2713.62 1048.82 2702.96C1229.74 2681.13 1470.41 2667.15 1726.49 2663.61C1982.59 2660.06 2223.54 2667.37 2404.99 2684.18C2493.54 2692.39 2563.22 2702.43 2612.1 2714.04C2669.91 2727.76 2695.82 2742.87 2696.1 2762.99C2696.38 2783.12 2670.9 2798.93 2613.48 2814.26C2564.95 2827.22 2495.58 2839.19 2407.29 2849.84C2226.37 2871.67 1985.7 2885.65 1729.62 2889.2C1687.35 2889.78 1645.46 2890.07 1604.22 2890.07ZM1851.94 2684.13C1810.77 2684.13 1769 2684.42 1726.79 2685C1471.44 2688.54 1231.58 2702.46 1051.39 2724.2C964.093 2734.74 895.713 2746.52 848.146 2759.21C783.049 2776.59 781.399 2789.39 781.4 2789.51C781.402 2789.64 783.406 2802.39 848.96 2817.95C896.859 2829.33 965.54 2839.21 1053.09 2847.32C1233.82 2864.07 1473.98 2871.34 1729.32 2867.8C1984.67 2864.27 2224.54 2850.34 2404.73 2828.6C2492.02 2818.07 2560.4 2806.29 2607.97 2793.59C2673.06 2776.21 2674.71 2763.41 2674.71 2763.29C2674.71 2763.16 2672.71 2750.42 2607.15 2734.85C2559.25 2723.48 2490.57 2713.6 2403.02 2705.48C2252.17 2691.5 2059.88 2684.13 1851.94 2684.13L1851.94 2684.13Z"></path><path fill="#707070" d="M2327 2708.5C2239.14 2844.14 2080.25 2819.89 1997.95 2728.89C1997.95 2728.89 1841.48 2663.14 1782.86 2608.51C1830.92 2570.86 1876.85 2522.5 1916.08 2466.3C1969.14 2399.41 2053 2327.95 2098.93 2290.87L2207.62 2421.95C2207.62 2421.95 2414.86 2572.71 2327 2708.5Z"></path><path fill="#474747" d="M2162.08 2814.38C2133.12 2814.38 2103.48 2808.3 2075.43 2796.51C2043.71 2783.17 2014.78 2762.91 1991.63 2737.83C1971.65 2729.33 1831.79 2668.74 1775.56 2616.34C1773.28 2614.2 1772.04 2611.18 1772.17 2608.05C1772.3 2604.93 1773.8 2602.02 1776.26 2600.09C1824.46 2562.33 1869.78 2513.95 1907.3 2460.18C1907.43 2460 1907.56 2459.83 1907.7 2459.66C1961.68 2391.59 2046.47 2319.47 2092.21 2282.54C2096.77 2278.87 2103.43 2279.53 2107.17 2284.04L2215.02 2414.11C2223.04 2420.09 2270.32 2456.34 2308.83 2507.9C2365.17 2583.32 2374.56 2654.7 2335.99 2714.31L2335.98 2714.31C2316.02 2745.13 2291.65 2769.37 2263.55 2786.34C2237.51 2802.06 2208.83 2811.28 2178.31 2813.74C2172.93 2814.17 2167.52 2814.38 2162.08 2814.38L2162.08 2814.38ZM1799.54 2608.84C1862.02 2659.85 2000.62 2718.41 2002.09 2719.03C2003.54 2719.64 2004.83 2720.56 2005.88 2721.72C2049.78 2770.26 2115.21 2797.34 2176.59 2792.41C2216.69 2789.19 2273.77 2771 2318.02 2702.68C2336.43 2674.23 2342.14 2642.67 2335 2608.87C2329.11 2581.04 2314.63 2551.5 2291.95 2521.05C2252.6 2468.23 2201.83 2430.97 2201.32 2430.6C2200.6 2430.07 2199.95 2429.46 2199.38 2428.78L2097.46 2305.85C2051.11 2343.71 1974.32 2410.17 1924.66 2472.7C1888.6 2524.32 1845.53 2571.15 1799.54 2608.85L1799.54 2608.84Z"></path><path fill="#707070" d="M1474.06 2671.84C1459.36 2700.79 1404.59 2766.83 1214.89 2763.12C979.261 2754.99 989.958 2713.77 1089.66 2615.64C1092.23 2589.83 1094.08 2570.28 1095.37 2555.59C1097.93 2556.59 1100.64 2557.59 1103.5 2558.45C1175.1 2579.13 1354.1 2635.33 1474.06 2671.84L1474.06 2671.84Z"></path><path fill="#474747" d="M1230.06 2773.97C1225 2773.97 1219.88 2773.92 1214.68 2773.82C1214.63 2773.82 1214.58 2773.82 1214.52 2773.82C1083.11 2769.28 1027.04 2755.02 1014.54 2722.95C1003.35 2694.22 1029.72 2659.92 1079.4 2610.74C1081.74 2587.12 1083.48 2568.75 1084.71 2554.66C1085 2551.31 1086.86 2548.29 1089.72 2546.51C1092.57 2544.73 1096.1 2544.4 1099.24 2545.62C1101.21 2546.39 1103.81 2547.37 1106.51 2548.18C1150.92 2561.01 1234.72 2586.91 1323.44 2614.32C1376.54 2630.72 1431.45 2647.69 1477.17 2661.61C1480.19 2662.53 1482.66 2664.74 1483.9 2667.65C1485.14 2670.55 1485.03 2673.86 1483.6 2676.68C1474.85 2693.92 1455.83 2718.78 1414.9 2739.3C1368.94 2762.32 1306.81 2773.97 1230.06 2773.97V2773.97ZM1215.18 2752.43C1295.51 2753.99 1359.47 2743.14 1405.31 2720.17C1419.17 2713.22 1442.61 2699.22 1457.77 2678.06C1414.84 2664.95 1365.24 2649.62 1317.13 2634.76C1231.26 2608.23 1150 2583.12 1104.81 2569.97C1103.64 2582.74 1102.15 2598.18 1100.31 2616.7C1100.06 2619.19 1098.95 2621.51 1097.16 2623.26C1061.96 2657.91 1026.98 2695.93 1034.48 2715.18C1046.72 2746.6 1173.42 2750.99 1215.18 2752.43L1215.18 2752.43Z"></path><path fill="#707070" d="M2607.7 1613.36C2582.6 1657.86 2576.04 1645.45 2597.44 1708.21C2618.83 1771.11 2586.59 1752.43 2540.95 1728.89C2497.59 1706.36 2433.83 1784.81 2391.9 1764.12C2403.31 1663.85 2355.39 1589.4 2327 1555.02C2342.55 1537.76 2365.66 1506.53 2396.46 1451.19C2428.27 1411.11 2422.99 1460.6 2459.79 1451.19C2496.59 1441.77 2498.16 1415.95 2521.27 1428.36C2544.52 1440.63 2515.71 1476 2546.37 1466.59C2577.04 1457.32 2594.73 1426.37 2598.43 1466.02C2602.14 1505.67 2596.29 1516.23 2626.53 1516.51C2656.91 1516.8 2632.66 1568.71 2607.7 1613.36H2607.7Z"></path><path fill="#474747" d="M2407.62 1778.36C2400.62 1778.36 2393.78 1776.98 2387.17 1773.72C2383.12 1771.72 2380.76 1767.4 2381.27 1762.91C2392.18 1667.04 2346.78 1595.78 2318.75 1561.83C2315.38 1557.74 2315.51 1551.8 2319.05 1547.86C2332.6 1532.82 2355.41 1502.93 2387.12 1445.98C2387.4 1445.47 2387.72 1444.99 2388.08 1444.53C2398.58 1431.31 2406.75 1425.37 2415.4 1424.66C2424.78 1423.88 2431.05 1429.54 2436.07 1434.09C2442.12 1439.58 2446.5 1443.54 2457.14 1440.82C2471.31 1437.2 2479.3 1430.88 2486.34 1425.31C2496.17 1417.53 2507.31 1408.72 2526.33 1418.94C2543.28 1427.88 2542.32 1445.25 2541.81 1454.58C2541.77 1455.25 2541.73 1456.02 2541.69 1456.81C2542.16 1456.68 2542.67 1456.54 2543.23 1456.36C2551.87 1453.75 2559.6 1448.99 2566.43 1444.79C2576.71 1438.46 2586.42 1432.49 2596.27 1437.4C2605.73 1442.12 2608.05 1454.01 2609.08 1465.02C2609.75 1472.2 2610.11 1478.34 2610.43 1483.75C2610.95 1492.67 2611.45 1501.08 2613.14 1503.53C2613.49 1504.04 2615.51 1505.71 2626.63 1505.81C2639.53 1505.94 2645.47 1512.87 2647.86 1517C2657.26 1533.19 2648.33 1562.62 2617.04 1618.58C2617.03 1618.59 2617.03 1618.6 2617.02 1618.61C2612.09 1627.36 2607.85 1633.98 2604.44 1639.29C2597.41 1650.26 2595.19 1654.02 2595.27 1660.05C2595.37 1667.75 2599.14 1680.07 2607.56 1704.76C2614.71 1725.78 2619.67 1746.65 2607.7 1756.96C2594.27 1768.52 2573.11 1757.57 2541.09 1741L2536.05 1738.4C2519.02 1729.55 2493.98 1742.93 2469.76 1755.87C2448.98 1766.98 2427.67 1778.36 2407.62 1778.36L2407.62 1778.36ZM2403.38 1756.62C2418.58 1758.96 2438.63 1748.25 2459.67 1737C2488.78 1721.45 2518.88 1705.36 2545.88 1719.4L2550.92 1722C2561.87 1727.67 2572.21 1733.02 2580.53 1736.45C2587.92 1739.49 2591.69 1740.17 2593.41 1740.27C2593.73 1737.65 2593.58 1730.1 2587.31 1711.65C2578.29 1685.2 2574.02 1671.51 2573.87 1660.34C2573.71 1647.6 2578.77 1639.7 2586.43 1627.75C2589.69 1622.66 2593.74 1616.33 2598.38 1608.12C2610.86 1585.8 2619.41 1568.26 2624.53 1554.5C2632.65 1532.68 2629.37 1527.74 2629.31 1527.67C2629.3 1527.67 2628.6 1527.23 2626.43 1527.21C2614.44 1527.09 2602.41 1525.62 2595.54 1515.7C2590.44 1508.32 2589.9 1499.04 2589.07 1485C2588.77 1479.76 2588.42 1473.82 2587.78 1467.01C2587.36 1462.52 2586.8 1459.7 2586.32 1457.97C2583.85 1459.19 2580.39 1461.32 2577.64 1463.01C2570.1 1467.65 2560.72 1473.43 2549.47 1476.83C2543.1 1478.78 2533.78 1480.77 2526.8 1475.31C2519.55 1469.63 2520.04 1460.63 2520.44 1453.4C2520.99 1443.49 2520.49 1440.05 2516.27 1437.82C2509.75 1434.32 2508.72 1434.89 2499.61 1442.09C2491.76 1448.29 2481.01 1456.8 2462.44 1461.55C2440.65 1467.12 2428.79 1456.37 2421.7 1449.95C2420.22 1448.6 2418.04 1446.63 2416.95 1446.06C2416.01 1446.43 2412.52 1448.28 2405.37 1457.17C2382.14 1498.83 2360.01 1532.5 2340.92 1555.29C2370.23 1593.01 2411.08 1663.49 2403.38 1756.62L2403.38 1756.62Z"></path><path fill="#232323" d="M2391.9 1764.12C2390.62 1775.68 2388.48 1787.8 2385.48 1800.07C2345.83 1960.81 1918.36 1889.64 1918.36 1889.64C1925.92 2002.75 2131.59 2265.19 2131.59 2265.19C2131.59 2265.19 2118.9 2274.75 2098.93 2290.87C2053 2327.95 1969.14 2399.41 1916.08 2466.3C1876.85 2522.5 1830.92 2570.86 1782.86 2608.51C1695.28 2677.12 1601.14 2709.92 1529.25 2688.53C1513.14 2683.68 1494.45 2678.12 1474.06 2671.84C1354.1 2635.33 1175.1 2579.13 1103.49 2558.45C1100.64 2557.59 1097.93 2556.59 1095.36 2555.59C1022.34 2525.07 1057.14 2397.27 1057.14 2397.27C848.18 2185.6 897.246 1682.82 897.246 1682.82C453.8 1574.99 507.858 1054.95 513.991 988.339C519.981 921.73 823.362 857.829 823.362 857.829C827.498 971.508 946.74 1071.07 946.74 1071.07C957.009 1079.77 968.991 1088.33 982.113 1096.74C1000.09 1108.29 1020.62 1119.56 1042.88 1130.83C1049.58 1134.11 1056.43 1137.53 1063.41 1140.81C1221.17 1215.55 1457.51 1285.3 1603.42 1378.87C1614.69 1386 1625.39 1393.42 1635.52 1400.98C1653.63 1414.39 1669.89 1428.36 1683.58 1442.91C1687.58 1447.19 1691.86 1451.33 1696.28 1455.03C1858.59 1598.67 2307.46 1533.91 2307.46 1533.91C2307.46 1533.91 2315.59 1541.19 2327 1555.02C2355.39 1589.4 2403.31 1663.85 2391.9 1764.12L2391.9 1764.12Z"></path><path fill="#232323" d="M1576 2705.77C1558.49 2705.77 1541.86 2703.44 1526.2 2698.78L1514.97 2695.41C1501.75 2691.44 1486.77 2686.95 1470.91 2682.06C1425.17 2668.14 1370.25 2651.17 1317.13 2634.76C1228.47 2607.37 1144.73 2581.49 1100.53 2568.72C1100.49 2568.71 1100.46 2568.7 1100.42 2568.69C1096.98 2567.66 1093.84 2566.48 1091.49 2565.56C1091.4 2565.53 1091.32 2565.5 1091.24 2565.46C1057.14 2551.21 1038.78 2516.51 1038.17 2465.11C1037.84 2437.14 1042.78 2411.7 1045.34 2400.48C998.449 2351.33 960.947 2283.79 933.821 2199.62C911.651 2130.84 896.296 2050.77 888.181 1961.64C876.522 1833.59 883.366 1722.86 885.829 1690.98C787.113 1665.38 705.642 1617.2 643.558 1547.69C591.417 1489.32 552.627 1415.6 528.265 1328.59C510.197 1264.06 500.138 1192.77 498.368 1116.7C496.954 1055.94 501.258 1009.73 503.096 990L503.341 987.359C505.076 968.067 523.574 949.419 559.891 930.373C586.354 916.495 622.623 902.208 667.69 887.91C743.911 863.727 820.396 847.523 821.16 847.363C824.247 846.712 827.466 847.459 829.952 849.403C832.439 851.346 833.94 854.288 834.055 857.443C835.174 888.205 846.617 937.937 894.778 1000.16C924.061 1038 953.31 1062.62 953.603 1062.86C963.061 1070.87 974.259 1079 987.891 1087.74C1003.95 1098.06 1023.5 1109.02 1047.65 1121.26C1049.34 1122.09 1051.04 1122.92 1052.74 1123.76C1057.71 1126.2 1062.84 1128.73 1067.96 1131.13C1126.98 1159.1 1196.28 1186.05 1269.64 1214.59C1391.38 1261.94 1517.27 1310.91 1609.2 1369.87C1620.17 1376.81 1631.2 1384.41 1641.92 1392.41C1661.2 1406.68 1677.86 1421.22 1691.38 1435.58C1695.33 1439.81 1699.28 1443.59 1703.16 1446.84C1703.23 1446.9 1703.3 1446.96 1703.37 1447.03C1738.99 1478.54 1792.49 1502.24 1862.39 1517.47C1919.08 1529.82 1986.44 1536.61 2062.6 1537.64C2192.79 1539.4 2304.82 1523.49 2305.94 1523.33C2309.07 1522.88 2312.24 1523.83 2314.6 1525.94C2314.95 1526.26 2323.47 1533.92 2335.26 1548.22C2365.45 1584.78 2414.34 1661.61 2402.53 1765.33C2401.18 1777.54 2398.94 1790.08 2395.88 1802.61C2385.91 1843.03 2353.41 1873.09 2299.29 1891.98C2257.84 1906.45 2203.33 1914.47 2137.27 1915.83C2049.41 1917.64 1963.7 1907.01 1930.75 1902.32C1951.76 2017.29 2138.06 2256.1 2140.02 2258.6C2141.79 2260.86 2142.58 2263.74 2142.2 2266.58C2141.83 2269.43 2140.33 2272.01 2138.03 2273.74C2137.91 2273.83 2125.22 2283.39 2105.65 2299.19C2060.67 2335.52 1977.38 2406.33 1924.66 2472.7C1885.97 2528.07 1839.22 2577.95 1789.46 2616.93C1744.7 2651.99 1697.68 2678.1 1653.48 2692.45C1626.12 2701.32 1600.21 2705.77 1576.01 2705.77H1576ZM1106.52 2548.19C1150.93 2561.01 1234.73 2586.91 1323.44 2614.32C1376.54 2630.72 1431.45 2647.69 1477.17 2661.61C1492.99 2666.47 1507.94 2670.96 1521.12 2674.92L1532.34 2678.28C1565.36 2688.11 1603.91 2686.03 1646.87 2672.1C1688.72 2658.52 1733.46 2633.62 1776.26 2600.09C1824.46 2562.33 1869.78 2513.95 1907.3 2460.18C1907.43 2460.01 1907.56 2459.83 1907.7 2459.66C1961.68 2391.59 2046.47 2319.48 2092.21 2282.54C2102.52 2274.23 2110.85 2267.68 2116.56 2263.25C2080.47 2216.25 1914.69 1995.1 1907.69 1890.35C1907.47 1887.09 1908.75 1883.91 1911.18 1881.71C1913.6 1879.52 1916.89 1878.55 1920.12 1879.09C1921.11 1879.25 2014.87 1894.64 2116.97 1894.64C2123.65 1894.64 2130.36 1894.57 2137.09 1894.43C2314.96 1890.72 2364.69 1839.68 2375.1 1797.5C2377.94 1785.88 2380.01 1774.24 2381.27 1762.94C2381.27 1762.93 2381.27 1762.92 2381.27 1762.91C2392.18 1667.05 2346.79 1595.78 2318.75 1561.83C2312.36 1554.08 2307.03 1548.47 2303.77 1545.21C2280.02 1548.32 2178.41 1560.58 2062.6 1559.03C1984.95 1558 1916.1 1551.06 1857.98 1538.41C1784.46 1522.41 1727.71 1497.08 1689.3 1463.14C1684.79 1459.36 1680.24 1455.01 1675.77 1450.21C1663.14 1436.8 1647.45 1423.12 1629.15 1409.58C1618.84 1401.88 1608.27 1394.6 1597.7 1387.91C1507.52 1330.08 1382.64 1281.5 1261.89 1234.53C1188.16 1205.85 1118.51 1178.76 1058.84 1150.48C1053.57 1148.01 1048.35 1145.44 1043.29 1142.95C1041.58 1142.11 1039.87 1141.27 1038.18 1140.44C1038.13 1140.42 1038.09 1140.4 1038.05 1140.38C1013.2 1127.79 993.013 1116.46 976.331 1105.74C961.904 1096.49 949.96 1087.82 939.828 1079.23C938.634 1078.23 908.836 1053.19 878.153 1013.64C851.503 979.277 819.68 927.577 813.593 870.94C789.275 876.429 731.544 890.091 674.026 908.347C630.185 922.263 595.111 936.057 569.779 949.348C553.498 957.89 525.985 974.439 524.649 989.299L524.4 991.985C522.597 1011.35 518.374 1056.69 519.759 1116.2C521.488 1190.49 531.282 1260.01 548.87 1322.82C572.344 1406.66 609.571 1477.52 659.517 1533.44C720.513 1601.73 801.348 1648.49 899.778 1672.43C904.953 1673.69 908.414 1678.56 907.898 1683.86C907.776 1685.11 895.879 1810.6 909.524 1960.06C917.511 2047.55 932.558 2126.01 954.246 2193.24C981.133 2276.59 1018.31 2342.71 1064.76 2389.76C1067.44 2392.47 1068.47 2396.4 1067.47 2400.08C1067.15 2401.26 1036.05 2519.03 1099.37 2545.67C1101.33 2546.43 1103.88 2547.39 1106.53 2548.19L1106.52 2548.19Z"></path><path fill="#83C49F" d="M1696.28 1455.04C1628.96 1573.14 1484.9 1771.82 1251.55 1836.01C1251.55 1836.01 882.698 1716.62 982.114 1096.74C1152.85 1206.28 1544.23 1295 1683.58 1442.91C1687.58 1447.19 1691.86 1451.33 1696.28 1455.04H1696.28Z"></path><path fill="#474747" d="M1251.55 1846.71C1250.44 1846.71 1249.32 1846.53 1248.25 1846.19C1247.26 1845.87 1223.53 1838.07 1189.75 1816.71C1158.85 1797.18 1113.16 1761.98 1070.97 1705.21C1023.71 1641.64 990.347 1564.51 971.802 1475.96C948.752 1365.89 948.668 1237.74 971.552 1095.05C972.123 1091.48 974.452 1088.45 977.746 1086.98C981.041 1085.5 984.855 1085.79 987.892 1087.74C1056 1131.44 1159.92 1171.87 1269.95 1214.68C1435.5 1279.09 1606.69 1345.69 1691.37 1435.58C1695.33 1439.81 1699.28 1443.59 1703.15 1446.84C1707.12 1450.16 1708.13 1455.84 1705.57 1460.33C1673.78 1516.11 1619.88 1598.34 1543.68 1673.36C1456.33 1759.36 1359 1817.55 1254.39 1846.32C1253.46 1846.58 1252.5 1846.71 1251.55 1846.71L1251.55 1846.71ZM990.214 1114.33C970.241 1248.04 971.084 1368.16 992.742 1471.57C1010.65 1557.07 1042.74 1631.39 1088.14 1692.45C1157.2 1785.36 1236.04 1818.76 1251.96 1824.79C1351.78 1796.69 1444.86 1740.62 1528.67 1658.12C1599.8 1588.09 1651.11 1511.52 1682.68 1457.21C1680.37 1455.01 1678.06 1452.67 1675.77 1450.21C1639.56 1411.78 1581.98 1373.76 1499.78 1334C1426.41 1298.51 1342.93 1266.03 1262.19 1234.62C1158.26 1194.18 1059.73 1155.85 990.215 1114.33H990.214Z"></path><path fill="#83C49F" d="M1635.52 1400.98C1593.44 1506.1 1482.61 1717.48 1256.4 1776.39C1256.4 1776.39 982.684 1682.82 1042.88 1130.83C1049.58 1134.11 1056.43 1137.54 1063.41 1140.82C1221.17 1215.56 1457.51 1285.3 1603.42 1378.87C1614.69 1386 1625.39 1393.42 1635.52 1400.98Z"></path><path fill="#474747" d="M1256.4 1787.09C1255.23 1787.09 1254.06 1786.89 1252.94 1786.51C1252.18 1786.25 1234.09 1779.96 1208.41 1761.89C1185.1 1745.49 1150.52 1715.62 1118.13 1666.49C1082.01 1611.69 1055.84 1544.46 1040.35 1466.66C1021.12 1370.04 1018.39 1256.66 1032.24 1129.67C1032.62 1126.21 1034.66 1123.14 1037.71 1121.46C1040.77 1119.78 1044.45 1119.69 1047.58 1121.22C1049.29 1122.06 1051.01 1122.91 1052.74 1123.76C1057.7 1126.2 1062.84 1128.73 1067.96 1131.13C1126.98 1159.09 1196.28 1186.05 1269.64 1214.59C1391.38 1261.94 1517.26 1310.91 1609.2 1369.87C1620.17 1376.81 1631.2 1384.41 1641.92 1392.41C1645.8 1395.31 1647.25 1400.45 1645.45 1404.95C1623.87 1458.87 1585.14 1538.71 1523.22 1612.87C1448.82 1701.98 1359.95 1760.48 1259.09 1786.74C1258.21 1786.97 1257.3 1787.09 1256.4 1787.09V1787.09ZM1051.93 1147.18C1040.2 1265.19 1043.26 1370.69 1061.04 1460.98C1075.8 1535.93 1100.66 1600.58 1134.95 1653.13C1151.73 1678.84 1180.01 1715.38 1219.47 1743.5C1237.4 1756.28 1251.32 1762.75 1257.04 1765.15C1352.13 1739.62 1436.14 1683.78 1506.8 1599.16C1564.05 1530.58 1600.94 1456.87 1622.47 1404.67C1614.3 1398.78 1606 1393.16 1597.7 1387.91C1507.51 1330.07 1382.64 1281.5 1261.88 1234.53C1188.15 1205.85 1118.51 1178.76 1058.83 1150.48C1056.52 1149.4 1054.21 1148.29 1051.93 1147.18Z"></path><path fill="#F7F7F7" d="M1603.42 1378.87C1567.05 1466.45 1505.58 1575.13 1405.45 1654.87C1364.51 1687.53 1317.16 1715.34 1262.25 1734.88C1262.25 1734.88 1181.94 1719.62 1123.18 1581.55C1085.81 1493.69 1057.14 1356.05 1063.42 1140.82C1221.17 1215.56 1457.51 1285.3 1603.43 1378.87H1603.42Z"></path><path fill="#474747" d="M1263.1 1745.93L1260.25 1745.39C1256.74 1744.73 1173.64 1727.43 1113.33 1585.74C1067.63 1478.29 1047.24 1328.49 1052.72 1140.5L1053.2 1124.14L1067.99 1131.15C1126.98 1159.09 1196.28 1186.05 1269.64 1214.59C1391.38 1261.94 1517.26 1310.91 1609.2 1369.87L1616.74 1374.7L1613.3 1382.97C1591.78 1434.79 1566.19 1482.84 1537.21 1525.79C1500.65 1580.01 1458.56 1626.25 1412.11 1663.23C1367.58 1698.77 1318.36 1726.27 1265.83 1744.96L1263.1 1745.93ZM1073.7 1157.41C1069.91 1334.64 1089.85 1475.87 1133.02 1577.37C1149.05 1615.03 1177.15 1666.97 1219.94 1700.48C1239.86 1716.08 1255.75 1721.9 1261.74 1723.7C1310.87 1705.83 1356.96 1679.87 1398.78 1646.5C1443.53 1610.87 1484.13 1566.24 1519.48 1513.83C1546.1 1474.35 1569.82 1430.4 1590.05 1383.07C1500.57 1327.38 1379.28 1280.2 1261.89 1234.53C1194.19 1208.2 1129.95 1183.21 1073.7 1157.41L1073.7 1157.41Z"></path><path fill="#F7F7F7" d="M1405.45 1654.86C1382.91 1672.84 1358.52 1689.24 1331.99 1703.65C1310.31 1715.63 1287.06 1726.04 1262.25 1734.88C1262.25 1734.88 1230.58 1728.89 1192.5 1690.1C1169.96 1667.27 1145 1632.9 1123.18 1581.55L1198.06 1525.07L1287.63 1457.46L1347.54 1557.87L1405.45 1654.86L1405.45 1654.86Z"></path><path fill="#474747" d="M1263.1 1745.93L1260.26 1745.39C1258.83 1745.12 1224.84 1738.31 1184.86 1697.59C1156.92 1669.29 1132.85 1631.65 1113.33 1585.73L1110.06 1578.04L1290.71 1441.74L1419.42 1657.4L1412.12 1663.23C1388.44 1682.11 1363.19 1698.88 1337.1 1713.05C1315.08 1725.21 1291.08 1735.96 1265.83 1744.96L1263.1 1745.93L1263.1 1745.93ZM1136.35 1585.01C1154.17 1624.96 1175.6 1657.75 1200.11 1682.58C1229.01 1712.02 1253.89 1721.33 1261.74 1723.7C1284.76 1715.32 1306.65 1705.43 1326.82 1694.28C1349.2 1682.13 1370.88 1668.02 1391.43 1652.25L1338.35 1563.36L1284.56 1473.19L1204.5 1533.61L1136.35 1585.01L1136.35 1585.01Z"></path><path fill="#F29797" d="M1319.16 1596.24L1331.99 1703.65C1310.31 1715.63 1287.06 1726.04 1262.25 1734.88C1262.25 1734.88 1230.58 1728.89 1192.5 1690.1L1232.15 1582.84L1198.06 1525.07L1287.63 1457.46L1347.54 1557.88L1319.16 1596.24Z"></path><path fill="#474747" d="M1263.1 1745.93L1260.26 1745.39C1258.83 1745.12 1224.84 1738.31 1184.86 1697.59L1180.11 1692.75L1220.35 1583.89L1184 1522.28L1290.71 1441.74L1360.38 1558.51L1330.28 1599.19L1343.47 1709.53L1337.17 1713.01C1315.08 1725.21 1291.08 1735.96 1265.84 1744.96L1263.1 1745.93ZM1204.92 1687.34C1231.73 1713.04 1254.33 1721.47 1261.74 1723.7C1282.38 1716.19 1302.11 1707.46 1320.51 1697.7L1308.03 1593.3L1334.7 1557.24L1284.56 1473.19L1212.12 1527.85L1243.94 1581.78L1204.92 1687.34L1204.92 1687.34Z"></path><path fill="#161616" d="M1974.77 719.418L2053.29 819.046L2298.17 918.189C2298.17 918.189 2158.57 312.364 2106.44 286.9C2054.31 261.436 1499.9 174.898 1499.9 174.898L1606.85 456.93C1606.85 456.93 1795.16 460.361 1974.77 719.417L1974.77 719.418Z"></path><path fill="#161616" d="M2298.17 928.887C2296.82 928.887 2295.46 928.63 2294.16 928.105L2049.28 828.962C2047.55 828.264 2046.04 827.129 2044.89 825.669L1966.37 726.041C1966.23 725.869 1966.1 725.693 1965.98 725.514C1925.77 667.52 1881.83 617.871 1835.37 577.946C1798.29 546.075 1759.53 520.294 1720.17 501.317C1666.6 475.489 1622.48 467.986 1606.64 467.627C1602.28 467.528 1598.4 464.798 1596.85 460.725L1489.9 178.693C1488.55 175.131 1489.19 171.119 1491.59 168.16C1493.99 165.202 1497.79 163.744 1501.55 164.33C1502.94 164.547 1641.89 186.261 1785.42 210.807C1979.01 243.914 2088.6 266.282 2111.13 277.289C2117.08 280.195 2125.67 287.318 2139.35 316.84C2147.86 335.201 2157.67 360.776 2168.52 392.856C2186.66 446.49 2208.08 519.322 2232.19 609.327C2273.18 762.377 2308.25 914.271 2308.6 915.787C2309.49 919.675 2308.15 923.738 2305.12 926.328C2303.15 928.009 2300.68 928.887 2298.17 928.887ZM2059.94 810.196L2283.06 900.531C2272.19 854.309 2243.72 735.083 2211.59 615.108C2187.62 525.615 2166.35 453.254 2148.36 400.034C2137.76 368.668 2128.24 343.785 2120.05 326.076C2107.92 299.842 2101.99 296.637 2101.74 296.513C2061.71 276.961 1681.86 214.369 1516.43 188.319L1614.43 446.73C1630.68 448.292 1672.38 454.752 1728.07 481.377C1769.28 501.08 1809.79 527.866 1848.47 560.99C1896.54 602.166 1941.93 653.328 1983.37 713.052L2059.94 810.195L2059.94 810.196Z"></path><path fill="#474747" d="M1744.28 468.803C1744.28 468.803 1902.95 369.375 1975.41 449.148C2047.88 528.921 2058.12 574.179 1974.77 719.417C1898.39 700.732 1716.83 603.915 1744.28 468.802V468.803Z"></path><path fill="#474747" d="M1978.28 727.62L1973.07 726.345C1932.05 716.31 1867.57 686.716 1815.99 643.223C1771.42 605.645 1721.59 544.636 1737.29 467.383L1737.9 464.384L1740.49 462.759C1742.14 461.723 1781.52 437.228 1830.59 422.239C1859.73 413.336 1886.2 409.708 1909.26 411.452C1938.86 413.692 1962.9 424.761 1980.69 444.351C2016.75 484.049 2039.36 517.162 2040.65 559.515C2041.87 599.602 2024.57 646.957 1980.95 722.966L1978.28 727.618L1978.28 727.62ZM1750.68 473.269C1738.31 542.257 1784.17 597.737 1825.18 632.318C1872.55 672.255 1932.76 700.577 1971.28 711.143C2011.49 640.398 2027.5 596.368 2026.39 559.95C2025.24 521.977 2004.01 491.236 1970.13 453.943C1907.36 384.836 1771.27 461.105 1750.68 473.269Z"></path><path fill="#161616" d="M1974.76 730.1C1972.95 730.1 1971.12 729.642 1969.45 728.68C1964.32 725.741 1962.55 719.203 1965.49 714.078C2006.77 642.108 2023.92 596.029 2022.83 560.002C2021.7 523.097 2000.81 492.959 1967.46 456.293C1907.98 390.748 1778.31 461.304 1753.95 475.471C1752.59 483.75 1752.07 491.898 1752.41 499.756C1752.67 505.659 1748.09 510.65 1742.19 510.904C1736.28 511.165 1731.29 506.58 1731.04 500.677C1730.56 489.653 1731.49 478.21 1733.81 466.669C1734.38 463.784 1736.12 461.264 1738.62 459.703C1740.29 458.658 1780.07 433.934 1829.59 418.814C1859.15 409.784 1886.06 406.104 1909.56 407.878C1940.09 410.183 1964.9 421.631 1983.3 441.905C2019.92 482.172 2042.89 515.869 2044.21 559.352C2045.45 600.155 2028.02 648.066 1984.05 724.723C1982.07 728.17 1978.47 730.099 1974.76 730.099L1974.76 730.1Z"></path><path fill="#161616" d="M1783.23 510.658C1795.85 538.668 1834.41 602.373 1937.38 655.346C1937.38 655.346 1937.49 655.279 1937.55 655.384C2009.28 671.496 1849.86 527.534 1802.73 507.754C1789.25 502.098 1783.8 504.404 1783.23 510.658Z"></path><path fill="#83C49F" d="M2199.12 484.514C2199.12 484.514 2281.62 524.404 2266.12 607.596C2244.66 722.805 2128.9 879.683 2232.22 1061.5C2290.19 1098.94 2366.86 1135.5 2395.2 1171.37C2423.54 1207.23 2466.75 1268.7 2466.75 1268.7C2466.75 1268.7 2408.47 1281.57 2395.51 1259.89C2382.56 1238.2 2382.37 1276.97 2364.81 1279.53C2347.26 1282.09 2333.11 1268.27 2313.4 1293.5C2293.68 1318.74 2292.25 1277.05 2266.51 1293.53C2240.77 1310 2205.98 1297.55 2205.98 1297.55C2205.98 1297.55 2258.02 1156.98 2212.54 1105.63C2167.05 1054.27 2120 922.874 2147.67 813.113C2174.24 707.693 2221.81 578.352 2221.81 578.352L2199.12 484.514Z"></path><path fill="#474747" d="M2234.2 1312.75C2217.02 1312.75 2203.33 1307.97 2202.38 1307.62C2199.69 1306.66 2197.49 1304.66 2196.28 1302.07C2195.08 1299.48 2194.96 1296.52 2195.95 1293.84C2209.79 1256.4 2238.31 1150.86 2204.53 1112.72C2157.72 1059.87 2108.32 925.44 2137.29 810.499C2161.44 714.721 2203.29 598.018 2210.65 577.728L2188.72 487.031C2187.74 483.01 2189.18 478.788 2192.4 476.191C2195.62 473.593 2200.04 473.084 2203.77 474.886C2204.69 475.33 2226.47 485.998 2246.31 507.629C2273.13 536.859 2283.61 572.105 2276.64 609.557C2270.95 640.102 2258.91 673.229 2246.17 708.3C2228.37 757.299 2208.2 812.835 2202.34 871.266C2195.77 936.748 2208.17 996.531 2240.23 1053.94C2256.84 1064.57 2275.21 1075.31 2293 1085.71C2339.03 1112.63 2382.5 1138.04 2403.59 1164.74C2431.79 1200.42 2475.07 1261.93 2475.5 1262.55C2477.56 1265.48 2478.02 1269.24 2476.72 1272.57C2475.43 1275.91 2472.55 1278.37 2469.06 1279.15C2468.42 1279.29 2453.32 1282.59 2436.32 1283.12C2413.66 1283.83 2397.88 1279.26 2389.33 1269.5C2385.13 1277.54 2378.79 1288.31 2366.36 1290.12C2359.62 1291.1 2353.62 1290.27 2348.33 1289.53C2337.72 1288.04 2331.88 1287.22 2321.83 1300.09C2317.99 1305 2311.91 1311.62 2303.36 1312.45C2294.93 1313.28 2289.08 1308.24 2284.82 1304.55C2279.43 1299.89 2278.15 1298.79 2272.28 1302.54C2259.99 1310.4 2246.24 1312.75 2234.2 1312.75L2234.2 1312.75ZM2219.87 1290.02C2230.53 1291.95 2247.47 1293.01 2260.74 1284.52C2280.05 1272.16 2292.72 1283.1 2298.81 1288.36C2299.62 1289.06 2300.7 1290 2301.55 1290.64C2302.27 1290.04 2303.4 1288.92 2304.96 1286.92C2322.61 1264.32 2339.19 1266.64 2351.3 1268.33C2355.73 1268.95 2359.56 1269.49 2363.27 1268.95C2365.73 1268.59 2369.3 1261.67 2371.21 1257.96C2374.67 1251.26 2378.96 1242.92 2388.15 1242.64C2397.49 1242.32 2402.72 1251.11 2404.69 1254.4C2409.17 1261.9 2429.33 1262.92 2448.09 1260.88C2433.67 1240.64 2406.46 1202.88 2386.8 1178C2368.21 1154.47 2324.49 1128.91 2282.2 1104.18C2263.42 1093.2 2244 1081.84 2226.41 1070.49C2224.97 1069.55 2223.77 1068.28 2222.92 1066.79C2143.78 927.513 2189.4 801.914 2226.06 700.993C2238.5 666.773 2250.24 634.451 2255.6 605.637C2261.34 574.843 2253.06 546.903 2231 522.592C2225.98 517.055 2220.76 512.321 2215.9 508.394L2232.21 575.838C2232.71 577.897 2232.58 580.057 2231.85 582.045C2231.38 583.334 2184.17 712.083 2158.04 815.728C2146.07 863.225 2147.83 921.047 2163.01 978.542C2175.78 1026.9 2197.83 1072.88 2220.54 1098.54C2241.68 1122.4 2247.16 1164.17 2236.85 1222.7C2231.86 1251.02 2224.38 1276.17 2219.87 1290.02Z"></path><path fill="#474747" d="M2230.67 1037.58C2243.65 1028.74 2261.7 1034.17 2267.24 1048.87C2270.82 1058.36 2270.9 1069.32 2260.95 1079.25C2236.64 1103.48 2215.25 1113 2215.25 1113C2215.25 1113 2166.8 1117.76 2185.97 1068.04L2230.67 1037.58Z"></path><path fill="#474747" d="M2211.79 1123.84C2203.67 1123.84 2187.03 1122.16 2177.36 1109.45C2169.07 1098.55 2168.61 1083.33 2175.99 1064.19C2176.77 1062.16 2178.15 1060.42 2179.95 1059.19L2224.64 1028.74C2233.65 1022.61 2244.78 1020.98 2255.18 1024.27C2265.44 1027.51 2273.48 1035.1 2277.25 1045.1C2283.08 1060.57 2279.97 1075.39 2268.5 1086.82C2243.08 1112.16 2220.54 1122.35 2219.6 1122.78C2218.55 1123.24 2217.43 1123.54 2216.29 1123.65C2215.7 1123.71 2214.08 1123.84 2211.79 1123.84L2211.79 1123.84ZM2194.85 1074.93C2191.49 1084.83 2191.31 1092.4 2194.36 1096.46C2198.22 1101.59 2207.68 1102.51 2212.51 1102.43C2217.7 1099.78 2234.67 1090.33 2253.39 1071.67C2258.93 1066.16 2260.11 1060.29 2257.23 1052.65C2255.79 1048.83 2252.7 1045.92 2248.74 1044.67C2244.63 1043.37 2240.24 1044.01 2236.69 1046.42L2194.85 1074.93Z"></path><path fill="#161616" d="M1913.1 647.32C1923 651.292 1931.04 653.955 1937.38 655.348C1937.38 655.348 1937.49 655.281 1937.55 655.386C2009.28 671.498 1849.86 527.536 1802.73 507.756C1789.25 502.099 1783.8 504.406 1783.23 510.659C1781.28 528.553 1816.52 578.326 1816.52 578.326"></path><path fill="#161616" d="M1947.02 663.738C1944.55 663.738 1941.81 663.464 1938.79 662.914L1938.74 662.947L1936.64 662.487C1936.44 662.444 1936.24 662.4 1936.04 662.355L1935.85 662.313C1935.55 662.247 1935.25 662.178 1934.94 662.107L1933.12 661.665C1926.9 660.091 1919.45 657.55 1910.44 653.939C1906.79 652.473 1905.01 648.321 1906.48 644.666C1907.94 641.01 1912.1 639.236 1915.75 640.7C1924.96 644.391 1932.56 646.932 1938.37 648.259C1938.8 648.315 1939.24 648.411 1939.66 648.546C1944.65 649.623 1947.31 649.583 1948.58 649.418C1948.11 647.085 1945.67 640.271 1933.26 625.414C1922.84 612.934 1908.01 597.842 1890.37 581.769C1855.6 550.085 1817.58 521.723 1799.97 514.331C1794.42 512.002 1791.54 511.668 1790.3 511.664C1789.46 522.382 1808.46 554.59 1822.34 574.205C1824.61 577.42 1823.85 581.871 1820.64 584.146C1817.42 586.422 1812.97 585.66 1810.7 582.446C1804.56 573.776 1774.08 529.575 1776.14 509.951C1776.57 505.314 1778.78 501.578 1782.35 499.427C1787.67 496.231 1795.02 496.786 1805.49 501.178C1828.41 510.797 1871.36 544.987 1901.57 572.683C1919.93 589.508 1935.22 605.244 1945.8 618.189C1959.79 635.317 1964.88 646.548 1962.31 654.604C1960.37 660.683 1955.24 663.736 1947.02 663.736V663.738Z"></path><path fill="#474747" d="M1882.55 1101.54C1887.33 1078.22 1890.73 1055.71 1892.56 1033.96C1898.52 960.474 1887.14 893.236 1859.77 827.945C1859.61 827.672 1859.55 827.89 1859.55 827.89C1853.09 811.432 1844.99 795.023 1836.19 778.666C1913.11 755.634 2047.5 741.43 2074.84 908.789C2084.71 1053.88 1973.44 1094.57 1882.55 1101.54Z"></path><path fill="#474747" d="M1882.55 1112.24C1879.5 1112.24 1876.57 1110.93 1874.53 1108.62 1872.31 1106.1 1871.4 1102.69 1872.07 1099.4 1876.86 1076 1880.17 1053.68 1881.9 1033.06 1887.55 963.371 1877.31 898.145 1850.59 833.74 1850.2 833.137 1849.87 832.489 1849.59 831.8 1843.99 817.52 1836.73 802.247 1826.77 783.735 1825.25 780.904 1825.08 777.538 1826.31 774.568 1827.54 771.598 1830.04 769.339 1833.12 768.417 1883.53 753.323 1955.3 742.633 2010.94 777.435 2050.32 802.064 2075.37 845.678 2085.4 907.062 2085.45 907.393 2085.49 907.727 2085.51 908.062 2090.2 976.985 2069.17 1029.93 2023 1065.44 1979.96 1098.54 1923.31 1109.14 1883.37 1112.21 1883.1 1112.23 1882.82 1112.24 1882.55 1112.24L1882.55 1112.24zM1868.82 822.248C1868.87 822.325 1868.92 822.403 1868.97 822.482 1869.22 822.908 1869.44 823.352 1869.63 823.808 1898.22 891.984 1909.21 961.007 1903.23 1034.82 1901.78 1052.08 1899.28 1070.42 1895.78 1089.53 1954.45 1082.77 1990.05 1063.79 2009.96 1048.48 2049.99 1017.69 2068.24 971.107 2064.21 910.017 2055.16 855.234 2033.43 816.735 1999.6 795.576 1974.01 779.572 1927.94 765.383 1851.82 785.383 1858.77 798.903 1864.28 810.86 1868.82 822.249L1868.82 822.248zM1869.88 830.689C1869.88 830.689 1869.88 830.69 1869.88 830.691 1869.88 830.691 1869.88 830.69 1869.88 830.689zM1869.88 830.663C1869.88 830.663 1869.88 830.666 1869.88 830.668 1869.88 830.666 1869.88 830.665 1869.88 830.663zM1869.89 830.637C1869.89 830.637 1869.89 830.642 1869.89 830.645 1869.89 830.643 1869.89 830.64 1869.89 830.637zM1869.91 830.585C1869.91 830.585 1869.9 830.593 1869.9 830.596 1869.9 830.593 1869.9 830.588 1869.91 830.585zM1869.91 830.558C1869.91 830.558 1869.91 830.567 1869.91 830.572 1869.91 830.568 1869.91 830.563 1869.91 830.558zM1869.92 830.531C1869.92 830.536 1869.92 830.542 1869.92 830.547 1869.92 830.542 1869.92 830.536 1869.92 830.531zM1363.82 516.745C1348.75 518.709 1334.16 521.506 1320.23 525.138 1264.17 538.999 1215.74 564.198 1174.01 596.093 1160.49 606.344 1147.62 617.429 1135.41 629.02 1112.96 571.696 1088.74 457.468 1229.58 420.179 1303.28 411.166 1331.7 412.342 1363.82 516.745z"></path><path fill="#474747" d="M1135.41 639.718C1134.63 639.718 1133.85 639.634 1133.08 639.462C1129.61 638.688 1126.74 636.236 1125.45 632.921C1116.21 609.325 1110.47 586.369 1108.38 564.691C1105.46 534.387 1109.87 507.425 1121.46 484.555C1139.66 448.671 1175.12 423.533 1226.85 409.839C1227.32 409.714 1227.8 409.621 1228.28 409.562C1267.2 404.802 1294.45 402.732 1317.8 416.763C1340.85 430.613 1357.15 458.669 1374.04 513.601C1374.97 516.613 1374.52 519.881 1372.82 522.532C1371.11 525.183 1368.33 526.948 1365.2 527.355C1350.52 529.268 1336.3 532.005 1322.93 535.492C1322.88 535.503 1322.84 535.514 1322.8 535.525C1271.87 548.117 1223.99 571.356 1180.5 604.595C1167.89 614.157 1155.21 624.979 1142.77 636.782C1140.76 638.688 1138.12 639.72 1135.41 639.72V639.718ZM1231.62 430.708C1186.43 442.808 1155.79 464.177 1140.55 494.232C1121.71 531.371 1128.58 575.591 1140.01 610.261C1149.15 602.128 1158.37 594.529 1167.55 587.569C1213.33 552.577 1263.83 528.074 1317.6 514.769C1327.93 512.079 1338.72 509.811 1349.8 507.994C1336.21 466.971 1323.1 444.903 1306.78 435.1C1289.43 424.673 1265.72 426.55 1231.62 430.707L1231.62 430.708Z"></path><path fill="#F29797" d="M1892.56 1033.95C1898.52 960.474 1887.14 893.236 1859.77 827.945C1901.1 820.168 1988.77 813.066 2005.35 885.332C2022.89 962.008 1987.14 1029.77 1892.56 1033.95Z"></path><path fill="#474747" d="M1880.92 1045.18L1881.9 1033.09C1887.6 962.775 1877.13 897.024 1849.9 832.082L1844.79 819.879L1857.79 817.432C1880.24 813.207 1913.44 809.557 1944.1 816.165C1982.89 824.527 2007.67 847.618 2015.78 882.94C2025.9 927.178 2019.13 967.739 1996.73 997.156C1974.61 1026.2 1938.76 1042.62 1893.04 1044.64L1880.92 1045.18ZM1874.69 836.348C1898.01 896.594 1907.66 957.694 1904.08 1022.34C1937.47 1018.6 1963.46 1005.53 1979.71 984.194C1998.19 959.915 2003.6 925.652 1994.92 887.716C1988.64 860.316 1970.54 843.751 1939.59 837.079C1917.2 832.252 1892.44 833.892 1874.69 836.348Z"></path><path fill="#F7F7F7" d="M1862.91 1210.93C1844.92 1301.98 1822.47 1379.59 1777.33 1433.11C1710.38 1512.48 1593.47 1539.32 1366.35 1479.47C1366.35 1479.47 1253.44 1504.21 1192.21 1414.33C1192.21 1414.33 1067.95 1380.22 973.317 1303.82L973.155 1303.65C870.662 1220.87 803.177 1088.25 966.442 895.309C1000.39 810.9 1053.25 707.212 1135.41 629.02C1194.8 572.538 1269.58 529.475 1363.82 516.745C1442.66 506.306 1534.96 517.034 1643.08 559.042C1720.89 605.307 1782.18 650.045 1826.88 699.541C1883.32 761.913 1913.21 832.061 1915.9 922.873C1918.41 1000.79 1900.73 1093.99 1862.91 1210.93Z"></path><path fill="#474747" d="M1577.24 1522.74C1518.29 1522.74 1448.56 1512.05 1365.99 1490.44C1357.86 1491.9 1332.15 1495.62 1300.75 1491.2C1252.12 1484.35 1212.39 1460.99 1185.61 1423.57C1163.62 1417.11 1053.78 1382.53 966.597 1312.14L965.927 1311.57C900.865 1258.86 864.732 1198.94 858.521 1133.45C851.361 1057.96 884.546 975.967 957.161 889.72C1003.23 775.661 1060.71 685.349 1128.03 621.271C1195.92 556.712 1274.77 517.979 1362.39 506.144C1448.55 494.735 1544.28 509.18 1646.95 549.071L1647.78 549.393L1648.55 549.848C1733.36 600.279 1792.55 645.567 1834.82 692.373C1894.74 758.593 1923.91 831.738 1926.59 922.559C1929.11 1000.73 1912.17 1093.24 1873.28 1213.62C1856.84 1296.71 1834.79 1381.58 1785.51 1440C1748.23 1484.2 1698.47 1510.07 1633.38 1519.09C1615.84 1521.52 1597.15 1522.74 1577.24 1522.74V1522.74ZM1366.58 1468.48L1369.08 1469.13C1477.86 1497.79 1563.35 1507.2 1630.44 1497.9C1690.06 1489.63 1735.44 1466.18 1769.16 1426.21C1815.43 1371.35 1836.52 1289.32 1852.42 1208.86L1852.54 1208.24L1852.73 1207.64C1890.98 1089.38 1907.65 999.003 1905.21 923.218C1902.68 837.744 1875.27 768.959 1818.95 706.718C1778.27 661.678 1720.89 617.812 1638.38 568.691C1539.42 530.364 1447.52 516.452 1365.22 527.349C1282.19 538.565 1207.33 575.382 1142.78 636.771C1077.38 699.019 1021.39 787.347 976.367 899.3L975.723 900.902L974.608 902.219C905.08 984.386 873.189 1061.5 879.82 1131.43C885.483 1191.13 919.147 1246.28 979.876 1295.33L980.538 1295.9C1072.2 1369.66 1193.82 1403.67 1195.04 1404.01L1198.83 1405.05L1201.05 1408.3C1224.54 1442.79 1258.86 1463.52 1303.04 1469.91C1336.72 1474.78 1363.81 1469.07 1364.08 1469.02L1366.58 1468.47L1366.58 1468.48Z"></path><path fill="#F29797" d="M1320.23 525.138C1264.17 538.999 1215.74 564.198 1174.01 596.093C1173.34 556.73 1181.6 503.588 1229.26 486.979C1273.6 471.651 1303.03 498.635 1320.23 525.138Z"></path><path fill="#474747" d="M1163.67 617.456L1163.31 596.276C1162.23 532.775 1183.81 491.488 1225.74 476.878 1265.73 463.052 1302.47 478.124 1329.2 519.315L1337.38 531.918 1322.8 535.524C1271.87 548.116 1223.99 571.355 1180.5 604.594L1163.67 617.456zM1254.17 493.26C1247.29 493.26 1240.14 494.534 1232.75 497.09 1214.29 503.523 1201.44 516.548 1193.47 536.903 1189.24 547.704 1186.53 560.347 1185.35 574.657 1221.86 549.549 1261.09 530.843 1302.38 518.859 1288.15 501.818 1272.02 493.26 1254.17 493.26zM1587.69 902.832C1540.94 820.473 1486.12 874.768 1437.21 983.049 1388.3 1091.33 1459.44 1132.46 1550.6 1149.88 1641.77 1167.29 1702.01 1104.2 1587.69 902.832H1587.69z"></path><path fill="#F7F7F7" d="M1550.75 1028.69C1546.78 1028.69 1542.96 1026.47 1541.11 1022.66C1535.39 1010.85 1527.54 1003.23 1517.79 1000.01C1499.59 994 1479.59 1004.28 1479.39 1004.38C1474.17 1007.11 1467.7 1005.12 1464.96 999.904C1462.21 994.693 1464.17 988.248 1469.37 985.479C1470.5 984.877 1497.36 970.843 1524.3 979.625C1539.85 984.698 1551.99 996.037 1560.37 1013.33C1562.94 1018.65 1560.72 1025.04 1555.4 1027.62C1553.9 1028.35 1552.31 1028.69 1550.75 1028.69Z"></path><path fill="#474747" d="M1206.13 805.422C1299.19 774.053 1315.86 844.075 1294.06 948.914C1272.26 1053.75 1182.25 1041.88 1088.53 1001.69C994.811 961.492 978.599 882.121 1206.13 805.422Z"></path><path fill="#F7F7F7" d="M1222.44 943.933C1219.11 943.933 1215.82 942.375 1213.73 939.454C1213.49 939.121 1200.25 921.113 1181.37 918.347C1171.2 916.855 1160.77 920.154 1150.37 928.149C1145.68 931.749 1138.96 930.869 1135.37 926.185C1131.77 921.5 1132.65 914.784 1137.33 911.185C1152.57 899.478 1168.5 894.776 1184.68 897.209C1212.69 901.421 1230.42 926.001 1231.16 927.045C1234.58 931.863 1233.45 938.541 1228.63 941.96C1226.75 943.293 1224.59 943.934 1222.45 943.934L1222.44 943.933Z"></path><path fill="#474747" d="M1283.69 1135.93C1259.92 1132.64 1226.24 1083.33 1286.56 1088.74 1346.87 1094.16 1304.64 1138.84 1283.69 1135.93zM1218.65 1227.17C1218.32 1227.17 1217.98 1227.16 1217.64 1227.13 1215.05 1226.88 1191.92 1224.21 1177.69 1205.56 1168.77 1193.87 1165.8 1179.14 1168.85 1161.77 1169.87 1155.95 1175.41 1152.06 1181.23 1153.08 1187.05 1154.1 1190.94 1159.65 1189.92 1165.47 1187.94 1176.71 1189.55 1185.84 1194.7 1192.59 1202.05 1202.22 1215.19 1205.41 1219.64 1205.82 1225.52 1206.38 1229.84 1211.59 1229.29 1217.48 1228.77 1223.02 1224.11 1227.17 1218.65 1227.17zM1320.37 1265.87C1305.51 1265.87 1292.97 1260.11 1285.97 1256.91 1284.98 1256.45 1284.08 1256.04 1283.27 1255.68 1279.86 1254.21 1277.34 1252.89 1275.09 1251.41 1270.16 1248.16 1268.79 1241.52 1272.04 1236.59 1275.29 1231.66 1281.93 1230.29 1286.86 1233.54 1288.38 1234.54 1290.4 1235.46 1291.78 1236.06 1292.72 1236.46 1293.76 1236.94 1294.9 1237.46 1308.88 1243.88 1332.28 1254.61 1355.58 1222.26 1359.04 1217.46 1365.72 1216.38 1370.52 1219.83 1375.31 1223.28 1376.4 1229.97 1372.94 1234.76 1355.45 1259.06 1336.53 1265.87 1320.37 1265.87z"></path><path fill="#F29797" d="M1280.98 1242.47C1255.52 1226.45 1257.87 1192.54 1262.3 1171.41C1255.63 1190.87 1241.77 1218.56 1218.64 1216.47C1218.47 1218 1216.27 1234.1 1215.59 1252.33C1213.87 1294.13 1231.17 1340.49 1287.53 1245.87C1287.64 1245.81 1287.67 1245.72 1287.7 1245.63C1285.44 1244.34 1283.2 1243.26 1280.98 1242.47Z"></path><path fill="#474747" d="M1234.87 1312.03C1232.6 1312.03 1230.38 1311.71 1228.2 1311.06C1204.61 1304.04 1204.41 1264 1204.9 1251.9C1205.19 1244.2 1205.95 1231.68 1207.92 1215.97L1208.01 1215.27C1208.67 1209.5 1213.82 1205.3 1219.6 1205.82C1236.75 1207.37 1248.1 1179.85 1252.19 1167.94C1254.02 1162.6 1259.7 1159.6 1265.14 1161.1C1270.59 1162.6 1273.94 1168.08 1272.77 1173.61C1265.16 1209.89 1275.44 1225.85 1285.82 1232.86C1288.11 1233.75 1290.47 1234.89 1292.99 1236.33C1297.33 1238.8 1299.39 1243.95 1297.94 1248.73C1297.57 1249.95 1297.01 1251.08 1296.28 1252.08C1272 1292.68 1252.26 1312.03 1234.87 1312.03V1312.03ZM1228.22 1226.6C1227.02 1237.8 1226.5 1246.78 1226.28 1252.73C1225.32 1276.05 1230.9 1289.54 1234.3 1290.55C1234.41 1290.58 1245.63 1292.41 1272.61 1249.73C1261.05 1241.47 1253.61 1229.23 1250.5 1213.8C1243.76 1220.69 1236.27 1225.01 1228.22 1226.6L1228.22 1226.6ZM1282.47 1236.44C1282.47 1236.44 1282.46 1236.45 1282.46 1236.45C1282.46 1236.45 1282.47 1236.44 1282.47 1236.44Z"></path><path fill="#474747" d="M1262.31 1182.11C1261.39 1182.11 1260.46 1181.99 1259.53 1181.74C1253.82 1180.21 1250.44 1174.34 1251.97 1168.64L1264.21 1123.14C1265.74 1117.43 1271.61 1114.05 1277.32 1115.58C1283.02 1117.12 1286.4 1122.99 1284.87 1128.69L1272.64 1174.19C1271.35 1178.97 1267.03 1182.11 1262.31 1182.11Z"></path><path fill="#F29797" d="M1590.91 1198.91C1592.26 1184.29 1567.87 1170.08 1536.42 1167.17 1504.97 1164.26 1478.39 1173.76 1477.03 1188.38 1475.68 1203 1500.08 1217.21 1531.52 1220.11 1562.97 1223.02 1589.56 1213.53 1590.91 1198.91zM1155.17 1087.21C1161.43 1073.93 1143.33 1052.25 1114.76 1038.8 1086.19 1025.35 1057.96 1025.21 1051.7 1038.49 1045.45 1051.77 1063.54 1073.45 1092.11 1086.9 1120.68 1100.36 1148.92 1100.5 1155.17 1087.21z"></path><path fill="#707070" d="M823.363 857.83C597.86 1016.15 513.992 988.34 513.992 988.34C519.982 921.731 823.363 857.83 823.363 857.83Z"></path><path fill="#474747" d="M531.997 1000.93C518.683 1000.93 511.896 998.915 510.624 998.494C505.91 996.931 502.892 992.328 503.337 987.382C505.074 968.067 523.572 949.419 559.889 930.373C586.352 916.495 622.621 902.208 667.688 887.91C743.909 863.727 820.395 847.523 821.158 847.363C826.131 846.316 831.15 848.909 833.175 853.568C835.199 858.227 833.668 863.667 829.51 866.586C734.942 932.982 653.288 975.448 586.817 992.808C562.373 999.192 544.367 1000.93 531.997 1000.93V1000.93ZM528.872 979.519C540.572 979.817 559.496 978.133 585.082 971.123C645.387 954.603 712.582 917.677 768.712 881.674C741.607 888.5 707.779 897.631 674.023 908.345C630.182 922.26 595.108 936.055 569.775 949.346C545.615 962.022 534.155 972.172 528.871 979.518L528.872 979.519Z"></path><path fill="#707070" d="M765.454 678.541C767.879 672.122 768.592 664.42 768.307 656.147C767.166 616.78 742.205 562.722 742.205 562.722C738.496 558.586 734.218 555.163 729.653 552.596C663.757 514.37 521.694 629.047 521.694 629.047C514.278 655.292 511.995 678.969 513.279 700.078C515.846 746.434 535.244 780.381 554.215 802.631C572.757 824.74 590.729 835.437 590.729 835.437L619.256 962.95C663.757 960.241 772.158 882.506 772.158 882.506L768.45 797.925C823.791 730.602 765.454 678.541 765.454 678.541Z"></path><path fill="#474747" d="M619.248 973.648C614.273 973.648 609.914 970.197 608.815 965.286L581.236 842.007C574.53 837.392 560.418 826.675 546.018 809.505C527.805 788.143 505.433 751.855 502.598 700.669C501.158 677.001 504.118 651.906 511.399 626.138C512.002 624.006 513.251 622.114 514.974 620.723C516.454 619.528 551.745 591.173 595.835 567.098C657.366 533.5 704.171 525.495 734.956 543.306C740.603 546.491 745.721 550.62 750.169 555.581C750.881 556.374 751.47 557.27 751.917 558.238C752.974 560.527 777.808 614.756 779 655.838C779.256 663.286 778.753 669.808 777.467 675.557C783.043 681.772 792.099 693.514 797.777 709.384C805.481 730.919 808.322 764.137 779.313 801.467L782.845 882.038C783.004 885.648 781.328 889.094 778.392 891.2C778.118 891.397 750.576 911.105 717.934 930.864C673.089 958.011 640.107 972.399 619.905 973.629C619.686 973.642 619.466 973.649 619.249 973.649L619.248 973.648ZM531.074 635.276C525.115 657.549 522.72 679.114 523.956 699.428C526.464 744.716 546.222 776.767 562.354 795.69C579.418 816.036 596.054 826.157 596.22 826.256C598.727 827.764 600.529 830.245 601.167 833.101L627.506 950.837C663.437 942.198 731.088 898.312 761.214 877.152L757.761 798.393C757.645 795.756 758.508 793.17 760.184 791.131C780.368 766.576 786.326 741.747 777.892 717.332C771.386 698.499 758.431 686.613 758.301 686.495C755.043 683.544 753.892 678.872 755.446 674.76C757.147 670.256 757.877 664.117 757.615 656.514C756.65 623.229 737.088 577.548 733.17 568.714C730.536 565.993 727.595 563.711 724.408 561.918C724.366 561.895 724.325 561.872 724.284 561.848C700.788 548.217 660 556.479 606.333 585.741C570.593 605.228 540.045 628.301 531.074 635.276Z"></path><path fill="#848484" d="M862.938 1620.15C857.116 1620.15 852.347 1615.48 852.246 1609.64 850.568 1512.31 888.185 1440.83 889.788 1437.83 892.574 1432.62 899.056 1430.66 904.266 1433.45 909.475 1436.23 911.439 1442.72 908.654 1447.92 908.089 1448.99 872.064 1518 873.637 1609.27 873.739 1615.18 869.033 1620.05 863.126 1620.15 863.063 1620.15 863 1620.15 862.938 1620.15zM897.239 1693.52C891.519 1693.52 886.778 1688.99 886.557 1683.23 882.869 1586.93 905.04 1536.92 905.986 1534.84 908.429 1529.46 914.772 1527.08 920.15 1529.53 925.521 1531.97 927.901 1538.29 925.476 1543.67 925.266 1544.14 904.462 1591.72 907.935 1682.41 908.162 1688.31 903.559 1693.28 897.655 1693.51 897.516 1693.52 897.377 1693.52 897.238 1693.52H897.239zM2193.46 2743.35C2188.98 2743.35 2184.81 2740.51 2183.31 2736.03 2181.92 2731.87 2175.22 2719.48 2142.96 2694.42 2124.36 2679.96 2106.55 2668.57 2106.37 2668.45 2101.39 2665.28 2099.93 2658.66 2103.1 2653.68 2106.28 2648.7 2112.89 2647.24 2117.87 2650.42 2118.63 2650.9 2136.59 2662.38 2155.96 2677.42 2183.53 2698.83 2199.12 2715.79 2203.61 2729.26 2205.48 2734.87 2202.45 2740.93 2196.84 2742.79 2195.72 2743.17 2194.58 2743.35 2193.46 2743.35zM2243.17 2670.13C2240.06 2670.13 2236.99 2668.79 2234.87 2666.2 2212.74 2639.1 2187.15 2619.1 2186.9 2618.9 2182.23 2615.28 2181.39 2608.56 2185.01 2603.89 2188.63 2599.23 2195.35 2598.38 2200.02 2602 2201.14 2602.87 2227.72 2623.62 2251.45 2652.67 2255.18 2657.24 2254.5 2663.98 2249.93 2667.72 2247.94 2669.34 2245.54 2670.13 2243.16 2670.13L2243.17 2670.13zM2293.5 2599.86C2289.69 2599.86 2286 2597.82 2284.07 2594.23 2272.76 2573.23 2253.21 2565.71 2253.01 2565.63 2247.46 2563.62 2244.61 2557.5 2246.62 2551.94 2248.63 2546.39 2254.79 2543.52 2260.35 2545.53 2261.45 2545.93 2287.59 2555.65 2302.91 2584.09 2305.71 2589.29 2303.76 2595.78 2298.56 2598.58 2296.95 2599.45 2295.21 2599.86 2293.5 2599.86L2293.5 2599.86zM1207.58 2717.93C1207.39 2717.93 1207.2 2717.93 1207.01 2717.92 1201.11 2717.61 1196.58 2712.57 1196.89 2706.67 1199.2 2662.76 1243.6 2649.68 1245.49 2649.14 1251.17 2647.53 1257.09 2650.83 1258.7 2656.52 1260.31 2662.19 1257.02 2668.09 1251.36 2669.72 1249.92 2670.14 1219.75 2679.37 1218.26 2707.8 1217.96 2713.51 1213.23 2717.93 1207.58 2717.94L1207.58 2717.93zM1126.29 2694.03C1125.92 2694.03 1125.55 2694.02 1125.18 2693.98 1119.3 2693.37 1115.03 2688.11 1115.64 2682.24 1120.12 2638.88 1151.89 2625.57 1153.24 2625.02L1161.25 2644.86 1161.36 2644.82C1160.49 2645.19 1140.03 2654.31 1136.92 2684.44 1136.35 2689.94 1131.7 2694.03 1126.29 2694.03z"></path><path fill="#F7F7F7" d="M513.278 700.078C515.845 746.434 535.243 780.381 554.214 802.631C468.206 868.527 397.032 928.576 397.032 928.576C356.809 921.302 314.59 785.8 314.59 785.8C314.59 785.8 417.571 747.148 513.278 700.078Z"></path><path fill="#474747" d="M400.082 939.999L395.128 939.103C382.909 936.893 370.901 927.156 358.42 909.336C349.526 896.638 340.289 879.647 330.965 858.834C315.302 823.869 304.816 790.391 304.377 788.983L301.372 779.337L310.831 775.786C311.856 775.401 414.446 736.764 508.557 690.479L523.065 683.344L523.959 699.487C526.464 744.717 546.221 776.769 562.354 795.692L569.666 804.269L560.719 811.124C475.914 876.099 404.639 936.155 403.929 936.754L400.081 940L400.082 939.999ZM327.94 792.144C332.144 804.536 340.28 827.319 350.564 850.252C359.325 869.791 367.878 885.561 375.986 897.124C384.296 908.975 390.578 914.218 394.793 916.495C411.341 902.664 469.964 854.019 539.044 800.797C524.497 781.459 509.28 753.339 504.126 716.42C430.075 751.986 354.178 781.998 327.941 792.145L327.94 792.144Z"></path><path fill="#F7F7F7" d="M978.69 546.605C978.69 546.605 920.638 597.382 806.389 638.603C795.263 642.597 782.427 648.587 768.306 656.147C767.165 616.78 742.204 562.722 742.204 562.722C738.495 558.586 734.217 555.163 729.652 552.596C823.219 480.994 938.895 400.264 938.895 400.264L978.69 546.606V546.605Z"></path><path fill="#474747" d="M758.115 673.738L757.614 656.457C756.652 623.291 737.088 577.559 733.169 568.713C730.536 565.992 727.595 563.711 724.408 561.919L710.262 553.963L723.151 544.1C815.833 473.176 931.614 392.3 932.773 391.491L945.231 382.796L990.769 550.253L985.734 554.657C983.302 556.784 924.845 607.238 810.02 648.665C799.794 652.336 787.464 658.025 773.356 665.578L758.115 673.738ZM747.306 552.592C748.288 553.551 749.243 554.548 750.169 555.58L751.243 556.777L751.917 558.237C752.837 560.231 771.8 601.636 777.462 639.432C786.775 634.885 795.25 631.235 802.774 628.534C860.596 607.673 903.431 584.32 929.181 568.404C947.558 557.045 960.086 547.755 966.541 542.698L932.57 417.774C901.78 439.457 819.357 497.908 747.305 552.592H747.306Z"></path><path fill="#848484" d="M711.353 774.447C707.874 774.447 704.463 772.753 702.408 769.63C701.731 768.602 685.696 744.129 673.467 716.292C655.212 674.738 655.182 647.085 673.379 634.101C685.43 625.504 706.899 620.089 740.748 643.12C758.993 655.534 772.809 670.725 773.389 671.366C777.351 675.748 777.011 682.513 772.628 686.475C768.246 690.437 761.481 690.097 757.519 685.714C745.33 672.272 705.979 637.123 685.806 651.516C677.521 657.428 680.197 678.348 692.964 707.479C704.454 733.694 720.124 757.63 720.281 757.869C723.526 762.805 722.157 769.438 717.221 772.684C715.409 773.875 713.369 774.445 711.352 774.445L711.353 774.447Z"></path><path fill="#848484" d="M555.607 796.896C554.569 796.896 553.918 796.871 553.731 796.862 547.829 796.596 543.26 791.595 543.527 785.693 543.793 779.801 548.762 775.246 554.664 775.487 555.078 775.504 584.439 776.379 596.765 757.829 606.894 742.584 615.355 740.392 623.154 739.454 626.149 739.094 626.86 739.008 629.995 733.574 638.179 719.389 652.764 717.355 662.414 716.01 673.166 714.51 673.168 714.256 673.203 709.999 673.252 704.122 678.032 699.39 683.898 699.39H683.988C689.896 699.439 694.646 704.268 694.597 710.176 694.493 722.715 688.422 729.017 683.347 732.096 677.788 735.469 671.474 736.349 665.368 737.2 655.931 738.516 651.193 739.642 648.526 744.266 640.697 757.835 632.962 759.823 625.709 760.696 622.33 761.102 620.098 761.371 614.584 769.669 597.592 795.242 563.994 796.895 555.606 796.895L555.607 796.896zM669.312 1691.55C667.967 1691.55 666.6 1691.29 665.277 1690.76 595.626 1662.36 537.652 1622.09 492.965 1571.08 457.173 1530.22 429.831 1482.47 411.699 1429.16 380.871 1338.52 387.308 1264.02 387.597 1260.9 388.14 1255.01 393.351 1250.68 399.234 1251.23 405.116 1251.77 409.444 1256.98 408.901 1262.86 408.807 1263.92 402.702 1336.83 432.232 1423.09 449.519 1473.59 475.487 1518.77 509.416 1557.39 551.841 1605.68 606.998 1643.89 673.354 1670.94 678.825 1673.17 681.451 1679.42 679.221 1684.89 677.53 1689.04 673.531 1691.55 669.311 1691.55L669.312 1691.55zM654.993 1832.84C619.701 1832.84 588.417 1827.19 561.828 1815.99 537.338 1805.68 516.795 1790.69 500.77 1771.46 473.39 1738.6 468.825 1704.82 468.644 1703.4 467.898 1697.54 472.045 1692.19 477.906 1691.44 483.749 1690.69 489.105 1694.83 489.864 1700.68 489.945 1701.26 494.21 1730.64 517.901 1758.59 531.768 1774.96 549.578 1787.73 570.837 1796.57 597.859 1807.8 630.632 1812.71 668.239 1811.17 674.105 1810.91 679.124 1815.51 679.365 1821.42 679.607 1827.32 675.017 1832.3 669.114 1832.54 664.34 1832.74 659.631 1832.84 654.993 1832.84zM2318.18 2067.29C2280.47 2067.29 2255.82 2061.41 2254.22 2061.02 2248.49 2059.61 2244.98 2053.81 2246.38 2048.08 2247.79 2042.34 2253.58 2038.83 2259.32 2040.24 2260.22 2040.45 2318.11 2054.03 2391.43 2038.01 2434.37 2028.64 2474.19 2011.07 2509.81 1985.8 2554.43 1954.13 2592.63 1910.15 2623.34 1855.06 2626.21 1849.9 2632.73 1848.05 2637.89 1850.93 2643.05 1853.8 2644.9 1860.32 2642.02 1865.48 2609.63 1923.59 2569.13 1970.07 2521.65 2003.63 2483.54 2030.56 2440.93 2049.24 2395.01 2059.13 2366.31 2065.31 2340.05 2067.29 2318.18 2067.29V2067.29zM2448.92 2177.47C2444.94 2177.47 2440.93 2177.34 2436.88 2177.08 2401.49 2174.78 2375.75 2163.28 2374.67 2162.79 2369.29 2160.36 2366.9 2154.02 2369.34 2148.64 2371.78 2143.26 2378.11 2140.87 2383.48 2143.3 2383.8 2143.44 2407.36 2153.85 2438.98 2155.77 2480.45 2158.29 2515.74 2145.71 2543.88 2118.36 2548.12 2114.25 2554.89 2114.34 2559.01 2118.58 2563.12 2122.81 2563.03 2129.59 2558.79 2133.71 2529.19 2162.47 2491.4 2177.47 2448.92 2177.47z"></path></svg>