<?xml version="1.0" standalone="no"?>
<!DOCTYPE svg PUBLIC "-//W3C//DTD SVG 20010904//EN"
 "http://www.w3.org/TR/2001/REC-SVG-20010904/DTD/svg10.dtd">
<svg version="1.0" xmlns="http://www.w3.org/2000/svg"
 width="500.000000pt" height="500.000000pt" viewBox="0 0 500.000000 500.000000"
 preserveAspectRatio="xMidYMid meet">
<metadata>
Created by potrace 1.14, written by Peter Selinger 2001-2017
</metadata>
<g transform="translate(0.000000,500.000000) scale(0.100000,-0.100000)"
fill="#000000" stroke="none">
<path d="M2320 4894 c-202 -27 -478 -105 -673 -189 -324 -138 -642 -374 -893
-661 -290 -332 -490 -759 -569 -1214 -38 -216 -51 -488 -31 -635 3 -22 8 -62
11 -90 18 -152 70 -366 122 -501 38 -99 59 -129 87 -118 32 12 35 45 9 114
-54 142 -84 247 -98 340 -3 20 -8 47 -10 60 -3 14 -7 43 -10 65 -3 22 -7 56
-10 75 -21 164 -28 388 -14 428 6 15 5 22 -4 22 -8 0 -8 3 -2 8 6 4 12 21 13
37 2 36 10 110 12 110 1 0 4 20 6 45 8 68 12 95 14 98 1 1 3 5 4 10 2 8 16 78
22 107 10 49 13 62 25 90 7 17 13 38 14 48 2 9 4 19 5 22 1 3 3 8 4 13 7 27
19 52 25 52 5 0 9 12 9 26 0 14 5 31 11 37 8 8 11 7 11 -5 0 -9 -4 -19 -9 -22
-5 -3 -7 -15 -4 -26 3 -12 -1 -22 -11 -26 -9 -3 -13 -10 -10 -15 2 -5 0 -28
-7 -51 -6 -24 -13 -50 -15 -58 -2 -8 -10 -40 -18 -70 -8 -30 -17 -73 -21 -95
-11 -71 -16 -111 -20 -146 -2 -19 -4 -34 -5 -34 -19 0 -16 -477 4 -535 2 -8 7
-40 10 -70 3 -30 21 -118 40 -195 142 -563 522 -1069 1028 -1368 266 -157 545
-251 868 -292 25 -3 61 -8 80 -10 40 -5 358 -6 410 -1 142 14 159 18 285 50
55 14 109 27 120 29 11 2 27 7 35 10 8 4 24 8 35 10 11 2 38 11 60 21 22 10
68 28 102 41 34 13 82 35 107 49 25 14 46 23 46 20 0 -3 7 2 16 10 8 9 24 16
35 16 10 0 19 4 19 9 0 5 17 17 37 26 21 10 44 24 51 32 7 7 19 13 26 13 8 0
19 6 25 14 7 8 30 24 51 35 22 11 48 28 58 38 33 31 62 53 62 47 0 -4 6 -3 13
2 7 5 1 -1 -13 -13 -14 -13 -29 -23 -33 -23 -5 0 -5 -5 -1 -12 4 -7 3 -8 -4
-4 -7 4 -12 3 -12 -3 0 -5 -17 -20 -37 -32 -21 -13 -49 -34 -63 -46 -14 -13
-29 -23 -33 -23 -5 0 -29 -14 -54 -30 -24 -17 -41 -25 -38 -18 4 7 0 5 -7 -4
-8 -9 -20 -18 -28 -20 -7 -2 -22 -11 -32 -21 -10 -9 -25 -17 -33 -17 -8 0 -15
-4 -15 -10 0 -5 -3 -9 -7 -8 -12 3 -56 -13 -73 -26 -20 -16 -141 -69 -157 -69
-7 0 -13 -4 -13 -9 0 -5 -4 -7 -9 -4 -5 4 -11 2 -13 -4 -2 -6 -18 -11 -36 -13
-17 -1 -32 -5 -32 -8 0 -5 -69 -29 -87 -30 -5 0 -12 -4 -18 -8 -5 -4 -17 -7
-25 -6 -8 0 -17 -3 -21 -7 -3 -4 -48 -17 -100 -28 -51 -12 -103 -23 -114 -26
-11 -3 -42 -8 -70 -10 -27 -3 -66 -7 -85 -10 -19 -3 -134 -7 -255 -9 -240 -4
-280 0 -504 56 -415 102 -727 279 -1023 581 -101 103 -122 119 -145 116 -22
-2 -29 -9 -31 -30 -3 -23 16 -46 120 -151 68 -68 141 -137 163 -153 22 -16 42
-31 45 -34 11 -12 149 -110 202 -144 32 -20 106 -60 165 -90 276 -137 509
-207 773 -231 36 -3 82 -8 103 -11 54 -7 304 -7 355 0 23 3 61 8 85 11 383 48
762 199 1107 438 160 111 376 317 512 487 296 371 482 832 543 1345 7 58 7
386 1 406 -3 8 -7 41 -10 74 -18 182 -90 455 -179 669 -75 183 -240 450 -361
584 -370 413 -774 647 -1296 751 -192 39 -515 50 -700 25z m440 -79 c52 -3
138 -15 191 -26 117 -24 137 -28 170 -34 56 -10 308 -99 394 -138 272 -125
550 -336 722 -547 15 -19 33 -39 39 -45 74 -66 251 -365 328 -555 15 -36 31
-74 36 -85 23 -52 75 -230 86 -295 3 -14 11 -59 19 -101 8 -42 17 -98 21 -125
3 -27 9 -69 13 -94 4 -25 6 -94 6 -155 -2 -95 -6 -147 -20 -275 -2 -14 -6 -54
-10 -90 -4 -36 -10 -69 -13 -75 -3 -5 -7 -22 -9 -39 -2 -16 -6 -41 -9 -55 -3
-14 -8 -42 -11 -61 -3 -19 -10 -41 -17 -49 -9 -12 -8 -13 4 -6 13 8 13 7 1 -8
-7 -9 -10 -17 -6 -17 4 0 2 -7 -5 -15 -7 -9 -10 -18 -7 -22 4 -3 3 -11 -2 -17
-6 -6 -12 -25 -15 -41 -2 -17 -5 -31 -6 -32 -2 -2 -3 -6 -4 -10 -1 -5 -5 -14
-9 -20 -5 -7 -6 -16 -3 -21 2 -4 -2 -18 -9 -32 -13 -23 -13 -23 -10 10 2 19 4
36 5 38 5 5 68 287 85 377 19 108 26 423 12 595 -9 106 -82 402 -132 535 -84
224 -231 474 -379 645 -78 89 -263 266 -346 331 -330 257 -726 417 -1135 458
-96 10 -470 8 -520 -3 -40 -8 -93 -17 -128 -22 -42 -5 -236 -54 -282 -71 -22
-8 -65 -24 -95 -35 -30 -11 -77 -31 -105 -43 -27 -13 -68 -31 -90 -41 -22 -10
-75 -40 -117 -66 -43 -26 -78 -44 -78 -40 0 4 -5 -1 -11 -11 -6 -9 -14 -15
-20 -12 -5 4 -9 1 -9 -4 0 -6 -7 -11 -15 -11 -8 0 -15 -3 -15 -7 0 -5 -23 -24
-52 -43 -28 -19 -66 -48 -84 -64 -18 -15 -35 -28 -38 -27 -3 0 -16 -9 -29 -22
-47 -45 -85 -75 -90 -71 -2 2 -10 -2 -17 -11 -7 -8 -17 -15 -22 -15 -9 0 14
23 65 65 14 11 22 24 19 29 -3 5 0 6 6 2 6 -4 29 10 51 31 88 83 111 102 111
90 1 -7 7 -1 15 13 8 14 14 21 15 16 0 -9 70 40 82 58 5 7 8 7 8 1 0 -5 4 -5
8 2 4 6 13 13 21 15 8 2 25 13 39 26 14 12 31 22 38 22 8 0 14 3 14 8 0 4 15
14 33 21 17 8 57 30 87 50 30 19 57 34 60 34 6 -1 31 9 103 41 32 15 63 24 68
21 5 -4 9 -2 9 4 0 5 60 28 133 51 184 58 188 59 227 65 19 3 64 12 100 20 79
17 126 23 255 31 55 4 101 7 102 8 3 2 62 -1 173 -9z m-2339 -1492 c-12 -20
-14 -14 -5 12 4 9 9 14 11 11 3 -2 0 -13 -6 -23z m3609 -2483 c0 -5 -5 -10
-11 -10 -5 0 -7 5 -4 10 3 6 8 10 11 10 2 0 4 -4 4 -10z"/>
</g>
</svg>
